<?xml version="1.0" encoding="UTF-8"?><svg id="Layer_1" xmlns="http://www.w3.org/2000/svg" viewBox="0 0 45.77 62.83"><defs><style>.cls-1{fill:#ed864d;stroke:#ed854c;}.cls-1,.cls-2{stroke-miterlimit:10;}.cls-2{fill:#3f88c5;stroke:#3f88c5;}</style></defs><path class="cls-1" d="M31.42,23.38h13.1c.42,0,.75-.33,.75-.75,0-3.8-1.12-20.88-21.65-22.07C.51-.77,.14,19.3,.59,25.16c.42,5.55,6.73,5.67,6.78,5.67,2.44,0,8.6-.67,8.11-9.59-.51-9.25,16.11-9.05,15.45,1.61-.02,.29,.2,.54,.49,.54Z"/><path class="cls-2" d="M14.35,39.45H1.25c-.42,0-.75,.33-.75,.75,0,3.8,1.12,20.88,21.65,22.07,23.11,1.33,23.48-18.74,23.04-24.59-.42-5.55-6.73-5.67-6.78-5.67-2.44,0-8.6,.67-8.11,9.59,.51,9.25-16.11,9.05-15.45-1.61,.02-.29-.2-.54-.49-.54Z"/></svg>