<?xml version="1.0" encoding="UTF-8"?><svg id="Layer_1" xmlns="http://www.w3.org/2000/svg" viewBox="0 0 212.22 66.61"><defs><style>.cls-1,.cls-2{fill:#3f88c5;}.cls-3{fill:#ed864d;stroke:#ed854c;}.cls-3,.cls-2{stroke-miterlimit:10;}.cls-2{stroke:#3f88c5;}.cls-4{fill:#ed854c;}</style></defs><g><path class="cls-4" d="M78.31,24.28c.14-1.92,.1-3.89-.82-5.66,.1,1.44,.38,2.83,.34,4.27-.1,2.11-.43,4.22-.72,6.38-.05,.58-.53,.91-1.01,.77-.34-.19-.82-.58-.86-.96-.05-.67,.14-1.39,.14-2.21,.05-1.87,.14-3.84,.1-5.76,0-1.1-.34-2.11-.62-3.26-1.1,.1-1.82,.82-2.45,1.49-3.65,3.7-6.14,8.16-7.63,13.39-.96,3.5-1.54,7.1-1.1,10.85,.19,1.68,.58,3.22,1.44,4.66,.53,.86,1.15,1.2,2.02,.77,1.58-.91,3.26-1.63,4.7-2.69,3.36-2.54,1.92-1.58,5.23-4.13,.82-.62,1.49-1.68,2.59-.38,.24,.19,.86-.1,1.73-.14-.53,.67-.82,1.06-1.1,1.34-3.55,3.07-2.45,2.5-6.1,5.52-2.54,2.21-5.62,2.54-8.83,2.3-1.54-.1-2.83-1.06-3.84-2.35-1.63-2.21-2.35-4.85-2.4-7.63-.14-9.02,2.93-16.66,8.69-22.99,.77-.86,1.58-1.49,2.5-1.97,1.1-.82,2.45-1.01,3.74-.62,.82,.29,1.68,.43,2.45,.67,1.68,.58,2.78,1.68,3.12,3.7,.58,3.26-.1,7.68-1.68,10.22-.1,0-.19,0-.34-.05,.24-1.82,.62-3.7,.72-5.52Zm-14.11,23.38c-2.35-6.48-1.25-12.53,.67-18.58-3.02,6.15-3.55,14.93-.67,18.58Zm6.77,1.87c.19-.14,.48-.24,.82-.43-.05-.05-.1-.19-.1-.24-.34,.14-.62,.24-.86,.34,0,.14,.05,.24,.14,.34Zm3.6-2.69s-.14,.1-.24,.14c-.1,.05-.1,.14-.14,.29,.19-.14,.34-.24,.48-.34,0,0,0-.1-.1-.1Z"/><path class="cls-4" d="M93,37.82h-.1c-.58,2.83-2.88,7.49-4.99,7.73-1.82,.24-3.79,.19-5.04-1.73-2.21-3.55-.77-8.98,2.69-9.41-.62-1.92,0-5.62,3.55-5.47,4.03,.24,4.22,5.47,4.08,7.01,.77,.05,1.44,.05,2.21,.1,1.97,0,2.21,1.06,0,1.49-.67,.14-1.92,.24-2.4,.29Zm-5.33,5.33c1.68-1.25,2.64-3.89,2.98-5.33-1.73-.05-3.7-.62-4.22-1.78-1.54,2.78-.91,6.29,1.25,7.1Zm2.59-11.95c-1.39-2.78-3.7-.14-3.12,1.97,.38,1.54,1.82,2.88,3.79,2.74,.14-1.54-.1-3.41-.67-4.7Z"/><path class="cls-4" d="M98.47,40.12c-.14,2.54,.67,3.94,2.3,1.82,1.68-2.4,2.21-5.04,3.74-7.34,.53-.77,1.68-1.15,2.64-.67,.96,.43,1.44,1.15,1.34,2.45-.1,.77-.34,6.14,.77,6.34,.43,.1,.91-.48,1.58-1.44,.91-1.34,1.82-3.75,2.35-4.51,.62-.86,1.58-.62,1.54,.58-.43,1.97-3.07,6.34-5.18,7.25-3.98,1.73-4.08-5.18-3.6-7.34-1.54,2.98-3.17,6.48-5.71,7.39-.86,.34-2.02,.53-2.83,.19-1.63-.82-2.35-2.5-2.21-4.37,.05-1.63,.48-3.41,.82-4.99,.48-1.54,.82-1.58,2.26-1.39,.82,.1,1.44,.38,1.34,.58-.43,1.39-1.06,3.6-1.15,5.47Z"/><path class="cls-4" d="M119.06,36.48c-1.2,2.11-3.65,6.29-3.89,8.83,0,.34-.38,.67-.72,.77-.34,.14-.82,.05-1.34,.05-.14-.82-.34-1.54-.38-2.21-.24-2.59,.14-5.18,.67-7.68,.05-.24,.14-.53,.19-.67,.53-1.25,.96-1.58,2.5-1.25-.19,1.78-.38,3.6-.62,5.38,.1,.05,.24,.1,.34,.1,1.1-2.21,3.46-6.58,5.18-8.35,.14-.1,1.25-.05,1.58-.1-.1,2.74,.05,5.42-.05,8.16-.96-.48-1.78-1.39-1.82-2.21-.05-.67-.1-1.44-.14-2.21-.19-.05-.29-.05-.38-.1-.34,.53-.82,.96-1.1,1.49Z"/><path class="cls-1" d="M131.11,32.49c2.98-.67,6-1.34,8.98-2.02,.72-.14,1.39-.1,2.21-.14,3.41-.48,7.44,3.12,5.9,8.16-.77,2.5-2.3,4.56-4.08,6.43-3.74,3.75-8.26,5.57-13.35,6.19-2.35,.29-4.42-.58-6.05-2.35-.48-.43-.96-1.06-.38-1.92,.34,.19,.82,.29,1.06,.53,.72,1.01,1.78,1.01,2.74,.82,6.53-1.2,12-4.13,15.94-9.89,.67-1.01,1.01-2.3,1.44-3.46,.19-.58,0-1.2,0-1.78-1.58-.48-2.98-.1-4.22,.19-2.54,.62-5.09,1.49-7.63,2.21-1.2,.34-2.45,.77-3.75,1.01-1.49,.24-4.51-1.34-5.18-2.88-.19-.43-.24-1.1,0-1.49,.77-1.54,1.49-3.02,2.5-4.27,2.4-3.26,5.23-6.19,8.5-8.5,.19-.14,.34-.29,.38-.72-.91,.58-1.92,1.06-2.93,1.58-.05-.14-.14-.19-.19-.24,.29-.29,.62-.62,.91-.86,2.16-1.82,4.51-3.22,7.25-3.84,1.87-.34,3.5-.05,4.99,1.3,1.1,1.01,2.02,1.97,2.74,3.31,.77,1.2-.34,4.42-1.44,5.09-.67,.38-1.68-.29-1.63-1.25,0-.62,.14-1.25,.29-1.82,.29-1.34,.29-1.39-.14-2.64-.96-.34-1.82,.05-2.78,.38-2.02,.72-3.79,1.92-5.42,3.36-2.88,2.5-5.42,5.38-7.58,8.59-.29,.34-.43,.67-.82,1.34,.82-.14,1.25-.34,1.78-.43Zm13.25-16.37c-1.97-.48-3.6,.05-5.23,.82-.05,.05,0,.34-.05,.53q-1.06-.14-1.87,.86c.82-.43,1.39-.67,1.87-.96,1.68-.43,3.41-.82,5.28-1.25Z"/><path class="cls-1" d="M153.62,45.21c-4.66-.62-3.7-7.58-2.35-10.46,1.1-2.4,3.07-3.36,5.28-2.83,3.65,1.39-1.1,7.25-2.98,7.68,0,.91,.1,2.26,.48,2.98,.96,1.87,4.9-1.78,7.44-5.42,1.87-1.92,.86,.67,.29,1.54-1.49,2.69-4.75,6.91-8.16,6.53Zm.14-6.96c.86-1.15,3.36-3.94,2.74-5.18-.19-.38-.62-.43-1.06,.1-1.34,1.82-1.63,2.88-1.68,5.09Z"/><path class="cls-1" d="M170.08,36.96c-.72,1.97-3.22,8.35-4.94,9.5-3.07,1.97-3.79-6.05-4.03-7.54-.53-4.56-.19-12.82,1.1-15.7-1.06,5.18-1.2,10.37-.67,15.7-.43-5.47,.05-10.99,1.44-16.42,.05-.29,.19-.53,.24-.72,.72-.34,1.3-.72,1.92-1.01,.77,.1,.72,.67,.67,1.25-.14,1.63-.38,3.36-.53,5.04-.24,3.22-.43,6.48-.58,9.7-.05,1.68-.05,4.56-.05,6.29,.24,3.84,3.6-5.95,4.71-6.82,.67-.38,.77,.53,.72,.72Z"/><path class="cls-1" d="M171.91,45.21c-4.66-.62-3.7-7.58-2.35-10.46,1.1-2.4,3.07-3.36,5.28-2.83,3.65,1.39-1.1,7.25-2.98,7.68,0,.91,.1,2.26,.48,2.98,.96,1.87,4.9-1.78,7.44-5.42,1.87-1.92,.86,.67,.29,1.54-1.49,2.69-4.75,6.91-8.16,6.53Zm.14-6.96c.86-1.15,3.36-3.94,2.74-5.18-.19-.38-.62-.43-1.06,.1-1.34,1.82-1.63,2.88-1.68,5.09Z"/><path class="cls-1" d="M182.71,43.44c.58-.48,1.01-.86,1.49-1.34,2.4-2.35,2.93-3.07,5.38-5.47,.62-.72,1.3-1.06,2.21-.29-.14,.24-.24,.62-.48,.86-2.64,2.93-3.26,4.22-5.81,7.06-1.01,1.15-2.11,1.82-3.6,1.73-1.68-.14-2.64-.77-3.12-2.5-.82-3.22-.34-7.78,3.17-10.56,1.34-1.01,2.69-1.2,4.18-.53,.43,.1,.91,.53,1.2,.86,.38,.62,.29,1.87-.19,2.21-.77,.43-1.1-.14-1.49-.77-.1-.14-.19-.34-.29-.43-2.45,1.82-3.55,5.81-2.64,9.17Z"/><path class="cls-1" d="M190.29,27.11c-2.59,.53-5.14,1.1-7.73,1.68q-1.15,.29-1.97-1.01c.43-.24,.86-.53,1.3-.67,1.73-.48,3.46-.86,5.18-1.3,1.01-.19,3.31-.77,4.75-1.01,.19-1.2,.62-3.46,1.44-4.56l.77,2.93c.24,1.06,.34,1.15,1.34,1.06,2.16-.24,4.27-.58,6.43-.72,2.88-.14,5.71-.14,8.59-.24,.91,0,1.58,.29,1.82,1.34-1.92,.1-3.84,.14-5.71,.34-3.7,.43-8.64,1.25-12.43,1.63-1.06,6.72-1.92,10.75-1.92,17.19,.38,1.87,3.6-6.1,4.56-7.97,.72,.24,.86,.91,.67,1.39l-2.98,7.34c-.19,.43-.43,.86-.72,1.25-1.01,1.49-3.07,1.44-3.84-.14-.38-.77-.62-1.63-.67-2.5-.29-4.18,.53-11.57,1.73-15.6,.1-.24,.38-.48,.38,.14,0,.77-.53,2.45-.48,3.07s.24,.38,.34,.1c.14-.38,.67-3.17,.72-3.74-.67,0-1.15-.1-1.58,0Z"/></g><path class="cls-3" d="M31.42,23.38h13.1c.42,0,.75-.33,.75-.75,0-3.8-1.12-20.88-21.65-22.07C.51-.77,.14,19.3,.59,25.16c.42,5.55,6.73,5.67,6.78,5.67,2.44,0,8.6-.67,8.11-9.59-.51-9.25,16.11-9.05,15.45,1.61-.02,.29,.2,.54,.49,.54Z"/><path class="cls-2" d="M14.35,39.45H1.25c-.42,0-.75,.33-.75,.75,0,3.8,1.12,20.88,21.65,22.07,23.11,1.33,23.48-18.74,23.04-24.59-.42-5.55-6.73-5.67-6.78-5.67-2.44,0-8.6,.67-8.11,9.59,.51,9.25-16.11,9.05-15.45-1.61,.02-.29-.2-.54-.49-.54Z"/></svg>